<mxfile host="app.diagrams.net" modified="2023-07-21T13:04:55.374Z" agent="Mozilla/5.0 (Windows NT 10.0; Win64; x64) AppleWebKit/537.36 (KHTML, like Gecko) Chrome/114.0.0.0 Safari/537.36" version="21.6.5" etag="YAU9QiET9QSTssoyC3RH" type="github">
  <diagram name="第 1 页" id="IjuGW6d8vT-lfyKwJNIu">
    <mxGraphModel>
      <root>
        <mxCell id="0" />
        <mxCell id="1" parent="0" />
      </root>
    </mxGraphModel>
  </diagram>
</mxfile>
